<svg xmlns="http://www.w3.org/2000/svg" version="1.1" xmlns:xlink="http://www.w3.org/1999/xlink" xmlns:svgjs="http://svgjs.dev/svgjs" width="1000" height="623" viewBox="0 0 1000 623"><g transform="matrix(1,0,0,1,-0.6060606060606233,0.2522267206477409)"><svg viewBox="0 0 396 247" data-background-color="#ffffff" preserveAspectRatio="xMidYMid meet" height="623" width="1000" xmlns="http://www.w3.org/2000/svg" xmlns:xlink="http://www.w3.org/1999/xlink"><defs></defs><g id="tight-bounds" transform="matrix(1,0,0,1,0.2400000000000091,-0.09999999999999432)"><svg viewBox="0 0 395.52 247.2" height="247.2" width="395.52"><g><svg></svg></g><g><svg viewBox="0 0 395.52 247.2" height="247.2" width="395.52"><g transform="matrix(1,0,0,1,120.13249718004339,47.215199999999996)"><svg viewBox="0 0 155.2550056399132 152.7696" height="152.7696" width="155.2550056399132"><g><svg viewBox="0 0 155.2550056399132 152.7696" height="152.7696" width="155.2550056399132"><g><svg viewBox="0 0 155.2550056399132 152.7696" height="152.7696" width="155.2550056399132"><g><svg viewBox="0 0 155.2550056399132 152.7696" height="152.7696" width="155.2550056399132"><g><svg viewBox="0 0 155.2550056399132 152.7696" height="152.7696" width="155.2550056399132"><g><svg viewBox="0 0 155.2550056399132 152.7696" height="152.7696" width="155.2550056399132"><g transform="matrix(1,0,0,1,0,0)"><svg width="155.2550056399132" viewBox="0.15000000596046448 -37.900001525878906 46.849998474121094 46.10000228881836" height="152.7696" data-palette-color="#ffffff"><path d="M4.25 8.2Q1.65 8.2 0.15 7.85L0.15 7.85 0.15 1.1Q1.4 1.35 2.75 1.35L2.75 1.35Q3.9 1.35 4.48 0.98 5.05 0.6 5.33-0.43 5.6-1.45 5.6-3.45L5.6-3.45 5.6-37.9 13.55-37.9 13.55-3.15Q13.55 1.45 12.75 3.85 11.95 6.25 9.98 7.23 8 8.2 4.25 8.2L4.25 8.2ZM30.2-6.45L47-6.45 47 0 22.25 0 22.25-37.9 46.75-37.9 46.75-31.45 30.2-31.45 30.2-22.3 44.25-22.3 44.25-15.85 30.2-15.85 30.2-6.45Z" opacity="1" transform="matrix(1,0,0,1,0,0)" fill="#ffffff" class="undefined-text-0" data-fill-palette-color="primary" id="text-0"></path></svg></g></svg></g></svg></g></svg></g></svg></g></svg></g></svg></g><path d="M93.086 41.215L93.086 0 340.286 0 340.286 247.2 93.086 247.2 93.086 205.985 106.863 205.985 106.863 233.423 326.509 233.423 326.509 13.777 106.863 13.777 106.863 41.215Z" fill="#ffffff" stroke="transparent" data-fill-palette-color="primary"></path></svg></g></svg><rect width="395.52" height="247.2" fill="none" stroke="none" visibility="hidden"></rect></g></svg></g></svg>